<?xml version="1.0" standalone="no"?><!DOCTYPE svg PUBLIC "-//W3C//DTD SVG 1.1//EN" "http://www.w3.org/Graphics/SVG/1.1/DTD/svg11.dtd"><svg class="icon" height="512" viewBox="0 0 1024 1024" version="1.1" xmlns="http://www.w3.org/2000/svg"><path d="M512 25.6C243.8144 25.6 25.6 243.8144 25.6 512s218.2144 486.4 486.4 486.4 486.4-218.2144 486.4-486.4S780.1856 25.6 512 25.6z m0 921.6c-239.9744 0-435.2-195.2256-435.2-435.2 0-239.9744 195.2256-435.2 435.2-435.2 239.9744 0 435.2 195.2256 435.2 435.2 0 239.9744-195.2256 435.2-435.2 435.2z" fill="#5E6D82" /><path d="M724.3264 468.1216h-168.448v-168.448A43.7248 43.7248 0 0 0 512 256a43.6736 43.6736 0 0 0-43.8784 43.6736v168.448h-168.448A43.7248 43.7248 0 0 0 256 512c0 24.4224 19.5584 43.8784 43.6736 43.8784h168.448v168.448c0 24.2176 19.6608 43.6736 43.8784 43.6736a43.6736 43.6736 0 0 0 43.8784-43.6736v-168.448h168.448A43.7248 43.7248 0 0 0 768 512a43.6736 43.6736 0 0 0-43.6736-43.8784z" fill="#5E6D82" /></svg>